# xmcd
#
# Track frame offsets:
# 150
# 9328
# 20339
# 28123
# 45699
# 69112
# 76442
# 87818
# 97168
# 109440
#
# Disc length: 1673 seconds
#
# Revision: 0
# Processed by: cddbd v1.4PL0 Copyright (c) Steve Scherf et al.
# Submitted via: Audion 3.0.2 (http://www.panic.com/audion/)
#
DISCID=7406870a
DTITLE=Bill Solly Denise Noliin, Michael Klausner, Diane Findlay - Gay Friendly
DYEAR=1900
DGENRE=
TTITLE0=It's a Boy's Life
TTITLE1=You're Gay
TTITLE2=I Was Like...!!!
TTITLE3=The Very Best Thing
TTITLE4=If I Tell You Now
TTITLE5=At the Gym
TTITLE6=Story of Tony and Fred
TTITLE7=Not Gay
TTITLE8=I Need a Lover
TTITLE9=Over Me
EXTD=
EXTT0=
EXTT1=
EXTT2=
EXTT3=
EXTT4=
EXTT5=
EXTT6=
EXTT7=
EXTT8=
EXTT9=
PLAYORDER=
